/* XPM */
static char *result[] = {
/* columns rows colors chars-per-pixel */
"32 32 133 2 ",
"   c #584990",
".  c #584A90",
"X  c #594A91",
"o  c #5A4C91",
"O  c #5B4C91",
"+  c #5B4D91",
"@  c #5B4D92",
"#  c #5C4E92",
"$  c #5F5297",
"%  c #65599C",
"&  c #7C729F",
"*  c #7D729F",
"=  c #7F749C",
"-  c #6B61A3",
";  c #6E64A5",
":  c #6F65A5",
">  c #7268A1",
",  c #766CA6",
"<  c #776DA6",
"1  c #796CA4",
"2  c #796DA4",
"3  c #7A6DA4",
"4  c #7A6EA4",
"5  c #7B6EA6",
"6  c #736AA8",
"7  c #7269AA",
"8  c #736AAA",
"9  c #746BAA",
"0  c #756CAA",
"q  c #7E73A0",
"w  c #7D71A3",
"e  c #7E72A3",
"r  c #7E74A1",
"t  c #7C70A6",
"y  c #7D70A6",
"u  c #80759C",
"i  c #80759D",
"p  c #81779D",
"a  c #82779D",
"s  c #82789D",
"d  c #82789E",
"f  c #83789E",
"g  c #83799E",
"h  c #84799E",
"j  c #8176A0",
"k  c #887EA2",
"l  c #8A82AC",
"z  c #8B83AC",
"x  c #9189AB",
"c  c #9C92AD",
"v  c #9D93AD",
"b  c #9790B0",
"n  c #A199A6",
"m  c #A29AA7",
"M  c #A59ABE",
"N  c #A69BBE",
"B  c #A69CBE",
"V  c #AEA7AC",
"C  c #B2ABAC",
"Z  c #B2ACAC",
"A  c #B3ADB0",
"S  c #B3ADB1",
"D  c #B0ABB4",
"F  c #C9C5B3",
"G  c #CAC5B3",
"H  c #CAC6B3",
"J  c #CBC6B3",
"K  c #CAC5B4",
"L  c #CAC6B4",
"P  c #CBC6B4",
"I  c #CBC7B4",
"U  c #CCC7B4",
"Y  c #CCC7B5",
"T  c #CDC8B4",
"R  c #CDC9B4",
"E  c #CECAB4",
"W  c #C6C1BA",
"Q  c #C8C2BB",
"!  c #D0CCB9",
"~  c #D2CFBA",
"^  c #D5D2B6",
"/  c #D6D3B7",
"(  c #D7D3B7",
")  c #D8D5B7",
"_  c #D3D0BA",
"`  c #D3D0BB",
"'  c #D4D0B9",
"]  c #DDDBBC",
"[  c #DFDCBD",
"{  c #EBE9BC",
"}  c #EAE9BD",
"|  c #EBE9BD",
" . c #F3F2BF",
".. c #F4F3BF",
"X. c #B9AFCA",
"o. c #BEB6C4",
"O. c #BFB7C4",
"+. c #BAB0CA",
"@. c #BAB1CA",
"#. c #BCB2CB",
"$. c #CAC2C8",
"%. c #CCC5C9",
"&. c #E3DDD7",
"*. c #E4DDD7",
"=. c #E5E1C3",
"-. c #E6E3C4",
";. c #EFEEC0",
":. c #EFEDC6",
">. c #F0EEC7",
",. c #F0EDC9",
"<. c #F2EFCA",
"1. c #F3F2C0",
"2. c #F3F3C0",
"3. c #F2F1C3",
"4. c #F4F3C0",
"5. c #F4F3C1",
"6. c #F5F4C0",
"7. c #F5F4C1",
"8. c #F5F5C1",
"9. c #F6F5C1",
"0. c #F7F6C1",
"q. c #F8F8C1",
"w. c #F9F8C1",
"e. c #F8F8C2",
"r. c #F9F8C2",
"t. c #F3F1CA",
"y. c #F4F1CA",
"u. c #F4F1CB",
"i. c #E8E3D1",
"p. c #E7E1D8",
"a. c #E8E2D9",
"s. c #E9E3D9",
"d. c None",
/* pixels */
"d.d.d.d.d.d.o o o o o o d.d.d.d.d.d.d.d.o o o o o o d.d.d.d.d.d.",
"d.d.d.d.d.d.= s s s s = d.d.d.d.d.d.d.d.= s s s s = d.d.d.d.d.d.",
"d.d.d.d.+ i Z P U U P Z i + d.d.d.d.+ i Z P U U P Z i + d.d.d.d.",
"d.d.d.d.O f L 7.0.0.7.H p . d.d.d.d.. p H 7.0.0.7.L f O d.d.d.d.",
"d.d.d.d.+ f U 0.q.w.0.T f o   + +   o f T 0.w.q.0.U f + d.d.d.d.",
"d.d.d.d.+ d G 5.9.6.4.' c t 5 y y 5 t c ' 4.6.9.5.G d + d.d.d.d.",
"d.d.d.d.+ d K 5.9.4.2.=.$.@.X.+.+.X.@.$.=.2.4.9.5.K d + d.d.d.d.",
"d.d.d.d.+ d K 5.9. .1.:.i.&.&.*.*.&.&.i.:.1. .9.5.K d + d.d.d.d.",
"d.d.d.d.+ d K 5.9.1.1.3.>.,.,.,.,.,.,.>.3.1.1.9.5.K d + d.d.d.d.",
"d.d.d.d.+ d K 5.9.1.1.1.1.1.1.1.1.1.1.1.1.1.1.9.5.K d + d.d.d.d.",
"d.d.d.d.+ d K 5.9.1.1.1.1.............1.1.1.1.9.5.K d + d.d.d.d.",
"d.d.d.d.@ f L 5.9.1.1.1.1.1.1.1.1.1.1.1.1.1.1.9.5.L f @ d.d.d.d.",
"d.d.# X + g I 5.9.1.1.1.1.1.1.1.1.1.1.1.1.1.1.9.5.I g + X # d.d.",
"d.d.# X + g I 5.9.1.1.1.1.1.1.1.1.1.1.1.1.1.1.9.5.I g + X # d.d.",
"d.d.d.d.@ f L 5.9.1.1.1.1.1.1.1.1.1.1.1.1.1.1.9.5.L f @ d.d.d.d.",
"d.d.d.d.@ f L 5.9.1.1.1.1.1.1.1.1.1.1.1.1.1.1.9.5.L f @ d.d.d.d.",
"d.d.# X + g I 5.9.1.1.1.1.1.1.1.1.1.1.1.1.1.1.9.5.I g + X # d.d.",
"d.d.# X + g R 0.e.9.9.8.8.8.8.8.8.8.8.8.8.9.9.e.0.R g + X # d.d.",
"d.d.d.d.+ f I 7.0.4.4.4.2.2.2.2.2.2.2.2.4.4.4.0.7.I f + d.d.d.d.",
"d.d.d.d.+ i C G J Y ! ~ ~ ~ _ ` ` _ ~ ~ ~ ! Y J G C i + d.d.d.d.",
"d.d.d.d.d.d.= a d k x b b b b b b b b b b x k d a = d.d.d.d.d.d.",
"d.d.d.d.d.d.3 e j r < 9 0 6 ; - - ; 6 0 9 < r j e 3 d.d.d.d.d.d.",
"d.d.d.d.+ 3 M O.W A l 8 7 : % $ $ % : 7 8 l A W O.M 3 + d.d.d.d.",
"d.d.d.d.+ y #.s.u.[ D z , > & h h & > , z D [ u.s.#.y + d.d.d.d.",
"d.d.d.d.+ y #.a.y.;.] S q * V E E V * q S ] ;.y.a.#.y + d.d.d.d.",
"d.d.d.d.+ 3 N o.Q ) { ^ n n ( r.r.( n n ^ { ) Q o.N 3 + d.d.d.d.",
"d.d.d.d.d.d.4 w j m ) } ) / | 0.0.| / ) } ) m j w 4 d.d.d.d.d.d.",
"d.d.d.d.d.d.+   o j Q <.t.-.' F F ' -.t.<.Q j o   + d.d.d.d.d.d.",
"d.d.d.d.d.d.d.d.  w o.p.s.%.v u u v %.s.p.o.w   d.d.d.d.d.d.d.d.",
"d.d.d.d.d.d.d.d.+ 4 N #.#.B 3     3 B #.#.N 4 + d.d.d.d.d.d.d.d.",
"d.d.d.d.d.d.d.d.d.d.2 y y 1 d.d.d.d.1 y y 2 d.d.d.d.d.d.d.d.d.d.",
"d.d.d.d.d.d.d.d.d.d.O O O O d.d.d.d.O O O O d.d.d.d.d.d.d.d.d.d."
};
