/* XPM */
static char *result[] = {
/* columns rows colors chars-per-pixel */
"32 32 176 2 ",
"   c #003800",
".  c #003900",
"X  c #003B00",
"o  c #003E00",
"O  c #003F00",
"+  c #005D00",
"@  c #005E00",
"#  c #006000",
"$  c #006100",
"%  c #006300",
"&  c DarkGreen",
"*  c #006500",
"=  c #006600",
"-  c #006700",
";  c #006800",
":  c #006900",
">  c #006A00",
",  c #006B00",
"<  c #006D00",
"1  c #006F00",
"2  c #007000",
"3  c #057005",
"4  c #007D00",
"5  c #0B700B",
"6  c #167016",
"7  c #247024",
"8  c #2D702D",
"9  c #008200",
"0  c #008300",
"q  c #008400",
"w  c #008500",
"e  c #008600",
"r  c #008C00",
"t  c #008D00",
"y  c #008E00",
"u  c #008F00",
"i  c #009200",
"p  c #009300",
"a  c #009400",
"s  c #009500",
"d  c #009600",
"f  c #009700",
"g  c #059205",
"h  c #009800",
"j  c #009B00",
"k  c #009D00",
"l  c #009E00",
"z  c #089208",
"x  c #00A200",
"c  c #00A400",
"v  c #00A500",
"b  c #00A600",
"n  c #00A800",
"m  c #00A900",
"M  c #00AB00",
"N  c #00AC00",
"B  c #00AD00",
"V  c #00B000",
"C  c #00B200",
"Z  c #00B300",
"A  c #00B400",
"S  c #00B500",
"D  c #00B600",
"F  c #00B900",
"G  c #00BA00",
"H  c #00BB00",
"J  c #00BE00",
"K  c #00C000",
"L  c #00C100",
"P  c #00C600",
"I  c #00C700",
"U  c #00C900",
"Y  c #00CA00",
"T  c #00CB00",
"R  c #00CC00",
"E  c #00CD00",
"W  c #00CE00",
"Q  c #00CF00",
"!  c #00D000",
"~  c #00D100",
"^  c #00D300",
"/  c #00D800",
"(  c #00D900",
")  c #00DA00",
"_  c #00DB00",
"`  c #00DC00",
"'  c #00DD00",
"]  c #00DF00",
"[  c #14CF14",
"{  c #15DB15",
"}  c #17DD17",
"|  c #18DB18",
" . c #19DD19",
".. c #00F200",
"X. c #00F300",
"o. c #00F500",
"O. c #00F600",
"+. c #00F700",
"@. c green",
"#. c #02FF02",
"$. c #03FF03",
"%. c #06FF06",
"&. c #08FF08",
"*. c #0BFF0B",
"=. c #0CFF0C",
"-. c #18FF18",
";. c #19FF19",
":. c #1AFF1A",
">. c #25CF25",
",. c #20FF20",
"<. c #24FF24",
"1. c #25FF25",
"2. c #27FF27",
"3. c #2BFF2B",
"4. c #2FFF2F",
"5. c #31FF31",
"6. c #32FF32",
"7. c #34FF34",
"8. c #36FF36",
"9. c #3BFF3B",
"0. c #3DFF3D",
"q. c #3EFF3E",
"w. c #3FFF3F",
"e. c #49CF49",
"r. c #40FF40",
"t. c #4AF54A",
"y. c #4FF54F",
"u. c #4FFF4F",
"i. c #50FF50",
"p. c #53FF53",
"a. c #74CF74",
"s. c #75CF75",
"d. c #61FF61",
"f. c #78FF78",
"g. c #7CFF7C",
"h. c #7DFF7D",
"j. c #90CF90",
"k. c #80FF80",
"l. c #81FF81",
"z. c #84FF84",
"x. c #90FF90",
"c. c #91FF91",
"v. c #92FF92",
"b. c #9AFF9A",
"n. c #9CFF9C",
"m. c #9FFF9F",
"M. c #A4FFA4",
"N. c #A8FFA8",
"B. c #A9FFA9",
"V. c #AAFFAA",
"C. c #ADFFAD",
"Z. c #AEFFAE",
"A. c #B9FFB9",
"S. c #BAFFBA",
"D. c #C2FFC2",
"F. c #C3FFC3",
"G. c #C5FFC5",
"H. c #C6FFC6",
"J. c #C7FFC7",
"K. c #C8FFC8",
"L. c #CAFFCA",
"P. c #CEFFCE",
"I. c #D0FFD0",
"U. c #D3FFD3",
"Y. c #D4FFD4",
"T. c #D8FFD8",
"R. c #D9FFD9",
"E. c #DBFFDB",
"W. c #DDFFDD",
"Q. c #E6FFE6",
"!. c #EEFFEE",
"~. c #EFFFEF",
"^. c #FAFFFA",
"/. c #FCFFFC",
"(. c white",
"). c None",
/* pixels */
").).).).).).).).).).).).).).).).).).).).).).).).).).).).).).).).",
").).).).).).).).).).).).).).).).).).).).).).).).).).).).).).).).",
").).).).).).).).).).).).).).o o o o ).).).).).).).).).).).).).).",
").).).).).).).).).).).).).)., 2 2 , ).).).).).).).).).).).).).).",
").).).).).).).).).).).).  ; C ^ ^ C ;   ).).).).).).).).).).).).",
").).).).).).).).).).).).- z | -.&._ i - ).).).).).).).).).).).).",
").).).).).).).).).).  - V  .y.u.:.o.' V -   ).).).).).).).).).).",
").).).).).).).).).).- g { r.l.f.2.@.@._ i - ).).).).).).).).).).",
").).).).).).).).  - V } t.k.Z.c.4.@.@.o.' V -   ).).).).).).).).",
").).).).).).).).; g { 0.h.C.J.n.6.@.@.@.@._ i ; ).).).).).).).).",
").).).).).).o , C } t.g.B.H.P.b.5.@.@.@.@.o.' C , o ).).).).).).",
").).).).).).o 3 [ 0.h.V.D.U.E.N.w.%.@.@.@.@.@.Q 2 o ).).).).).).",
").).).).).).o 6 e.g.B.D.K.T.!.G.d.,.&.@.@.@.@.Q 2 o ).).).).).).",
").).).).).).o 7 s.Z.H.Y.R.Q.^.W.x.i.<.*.#.@.@.Q 2 o ).).).).).).",
").).).).).).o 8 j.L.I.E.~./.(.!.H.v.p.1.*.@.@.Q 2 o ).).).).).).",
").).).).).).o 7 a.m.n.M.A.F.F.S.N.z.u.1.*.@.@.Q 2 o ).).).).).).",
").).).).).).o 5 >.6.5.7.9.q.q.9.8.3.;.=.$.@.@.Q 2 o ).).).).).).",
").).).).).).o < P O.o...........X.X.X.X.X.O.+.P < o ).).).).).).",
").).).).).).O = C _ ) / / / / / ( ( ( ( ( _ ` C = O ).).).).).).",
").).).).).).O % n E R Y Y T T P J G G G G K U n % O ).).).).).).",
").).).).).).O % m W E T T R R J c d d d d v L m & O ).).).).).).",
").).).).).).O & M ! W T T E E H f q w q 0 j U D ; O ).).).).).).",
").).).).).).O & N ~ W T T E E H f w e q 9 x ] R 1 o ).).).).).).",
").).).).).).O # a A P W E R E H h w q t l Z Y S < o ).).).).).).",
").).).).).).).).@ 4 A ! W R E H h q 9 l ~ T y > ).).).).).).).).",
").).).).).).).).X + p A P Q W G d r k A T S :   ).).).).).).).).",
").).).).).).).).).).+ 4 A ~ Q F a k ~ T u > ).).).).).).).).).).",
").).).).).).).).).).X + p S I L b n P S >   ).).).).).).).).).).",
").).).).).).).).).).).).+ 4 A W P M q , ).).).).).).).).).).).).",
").).).).).).).).).).).).X @ a B B s @ . ).).).).).).).).).).).).",
").).).).).).).).).).).).).).$ & * $ ).).).).).).).).).).).).).).",
").).).).).).).).).).).).).).O O O O ).).).).).).).).).).).).).)."
};
