/* XPM */
static char *result[] = {
/* columns rows colors chars-per-pixel */
"32 32 98 2 ",
"   c #555596",
".  c #5A5B9A",
"X  c #5D649D",
"o  c #69699D",
"O  c #6067A0",
"+  c #636BA3",
"@  c #6C6EA1",
"#  c #706FA1",
"$  c #6671A7",
"%  c #6973AA",
"&  c #6B78AC",
"*  c #7372A3",
"=  c #7A77A5",
"-  c #7C7CA7",
";  c #7879A9",
":  c #707CB2",
">  c #7E85AA",
",  c #7481B5",
"<  c #7686B8",
"1  c #8182AA",
"2  c #848BAE",
"3  c #868EB0",
"4  c #898BB1",
"5  c #8992B4",
"6  c #8B97B9",
"7  c #8D98BA",
"8  c #9390B2",
"9  c #939BB5",
"0  c #989AB7",
"q  c #929EBE",
"w  c #989EB9",
"e  c #9EA4BC",
"r  c #9BA9BC",
"t  c #A8A7BF",
"y  c #A9A8BF",
"u  c #AAB1BD",
"i  c #949FC0",
"p  c #8FA4C6",
"a  c #93A4C5",
"s  c #9FAAC3",
"d  c #9CADCD",
"f  c #ACADC2",
"g  c #A1AFCA",
"h  c #A4B2C3",
"j  c #AAB4C6",
"k  c #A6BAC6",
"l  c #A2B1CE",
"z  c #A9B5CA",
"x  c #B9BEC2",
"c  c #B3BBC9",
"v  c #BABECB",
"b  c #A2B1D0",
"n  c #AFBCD3",
"m  c #B3BFD4",
"M  c #BCC2C6",
"N  c #B6C2CA",
"B  c #BEC3CB",
"V  c #BACFCC",
"C  c #BCD1CE",
"Z  c #B5C2D6",
"A  c #BFD1DA",
"S  c #C8C7CF",
"D  c #C5C9CE",
"F  c #C5D5CF",
"G  c #CCD4CF",
"H  c #C3CAD5",
"J  c #CBCDD2",
"K  c #CED2D5",
"L  c #C7D4DB",
"P  c #CED4D9",
"I  c #C6DBD8",
"U  c #CBDDDD",
"Y  c #D1D4D6",
"T  c #D7DFD5",
"R  c #D1D5D9",
"E  c #D5DBDE",
"W  c #D8DDDF",
"Q  c #CBE1DE",
"!  c #DDE1D3",
"~  c #D0E0DA",
"^  c #E1E5D6",
"/  c #E3E6D8",
"(  c #E5EADD",
")  c #EAECDE",
"_  c #D7DDE0",
"`  c #D9DFE0",
"'  c #CEE3E0",
"]  c #D4E5E0",
"[  c #DBE0E0",
"{  c #DEEBE4",
"}  c #E3ECE4",
"|  c #EBEFE4",
" . c #E7F0E6",
".. c #EFF1E3",
"X. c #F3F4E7",
"o. c #F5F6E8",
"O. c #F8F9E9",
"+. c None",
/* pixels */
"+.+.+.+.+.+.+.+.+.+.+.+.+.+.+.+.+.+.+.+.+.+.+.+.+.+.+.+.+.+.+.+.",
"+.+.+.+.+.+.+.+.+.+.+.+.+.+.+.+.+.+.+.+.+.+.+.+.+.+.+.+.+.+.+.+.",
"+.+.+.+.+.+.+.+.+.+.o.o.o.X.X.o.o.o.o.o.o.X.+.+.+.+.+.+.+.+.+.+.",
"+.+.+.+.+.+.+.+.+.+.J S J J S J J S J S S J +.+.+.+.+.+.+.+.+.+.",
"+.+.+.+.+.+.+.+.o.Y 0 1 1 1 1 1 1 1 > - = 8 J o.+.+.+.+.+.+.+.+.",
"+.+.+.+.+.+.+.+.K f > O o O O + O o X .   * t J +.+.+.+.+.+.+.+.",
"+.+.+.+.+.+.o.J 0 , , < , < < < < , % $ $ $ * 8 J o.+.+.+.+.+.+.",
"+.+.+.+.+.+.o.K 0 - , , , , , , , : % + $ + * 8 J o.+.+.+.+.+.+.",
"+.+.+.+.+.+.+.+.J f ; . . . . . . .       * t J +.+.+.+.+.+.+.+.",
"+.+.+.+.+.+.+.+.[ B 4 @ * * @ @ o @ @ o o 2 N [ +.+.+.+.+.+.+.+.",
"+.+.+.+.+.+.o.` Z b z c B B c z z z z h e r g Z ` o.+.+.+.+.+.+.",
"+.+.+.+.+.+.o.E b d A {  .} ] Q Q Q ' I V k p b W o.+.+.+.+.+.+.",
"+.+.+.+.+.+.o.E b d U  .} ] ' ' ~ ' ' Q C k p b W o.+.+.+.+.+.+.",
"+.+.+.+.+.+.o.W b d L { ] ' Q U ' Q Q I V k p b W o.+.+.+.+.+.+.",
"+.+.+.+.+.+.o.E b d A ] ' U Q Q Q Q Q I C k p b W o.+.+.+.+.+.+.",
"+.+.+.+.+.+.` L n n L ] ] ] ] ] ~ ] ~ Q F N z z H R +.+.+.+.+.+.",
"+.+.+.+.o._ m n L ! } | | |  . ... . .} ! G G x r f R o.+.+.+.+.",
"+.+.+.+.X._ b b _ X.o.X.X.X.X.X.o.o.o.| ^ ! ! D 7 i R o.+.+.+.+.",
"+.+.+.+.o._ d d _ X.o.X.o.X.X.X.o.o.o.../ ^ ! x 6 a P o.+.+.+.+.",
"+.+.+.+.o.R g g R X.o.X.X.X.X.X.X.o.X.) ^ ! ! D 5 7 K o.+.+.+.+.",
"+.+.+.+.o.Y a a R o.o.X.X.X.X.X.X.X.X.| / ! ^ x 2 5 K o.+.+.+.+.",
"+.+.+.+.o.P i i P o.o.X.X.X.X.X.X.o.X.../ ! ^ u > 3 J o.+.+.+.+.",
"+.+.+.+.X.P i q P X.o.X.X.X.X.X.X.X.X.) / ! ! D > 3 J o.+.+.+.+.",
"+.+.+.+.o.Y i i P o.o.X.X.X.X.o.X.X.| ) ^ ! T u > 3 J o.+.+.+.+.",
"+.+.+.+.o.Y i i P o.o.X.X.X.X.X.o...) ^ ! ! ^ u > 3 J o.+.+.+.+.",
"+.+.+.+.o.Y 7 7 Y o.O.o.X.....X...) ^ ! ! ^ ^ M > 3 J X.+.+.+.+.",
"+.+.+.+.o.J 5 4 J o.o...( ) / / ^ ^ ! ! ! ! ! x > > K X.+.+.+.+.",
"+.+.+.+.o.K s w c K K D M u x x x x x x x x M u r e K X.+.+.+.+.",
"+.+.+.+.+.+.Y v e > 2 2 2 > > > 2 > > 2 > > > 9 v Y +.+.+.+.+.+.",
"+.+.+.+.+.+.o.Y e 2 2 3 3 3 3 2 3 3 3 2 2 2 3 r Y o.+.+.+.+.+.+.",
"+.+.+.+.+.+.+.+.K K J K G K K J J G G J K J K Y +.+.+.+.+.+.+.+.",
"+.+.+.+.+.+.+.+.o.o.X.X.X.X.o.o.o.o.o.X.o.o.X.o.+.+.+.+.+.+.+.+."
};
