/* XPM */
static char *result[] = {
/* columns rows colors chars-per-pixel */
"32 32 65 1 ",
"  c #A97858",
". c #AA7859",
"X c #AA7959",
"o c #AB7A59",
"O c #AB7A5A",
"+ c #AC7B5A",
"@ c #AC7C5A",
"# c #AC7C5B",
"$ c #AD7C5B",
"% c #AC7D5B",
"& c #AD7D5B",
"* c #AD7D5C",
"= c #AE7E5C",
"- c #AF7F5C",
"; c #B0805D",
": c #B0815E",
"> c #B1815E",
", c #B1825E",
"< c #B2835F",
"1 c #B3845F",
"2 c #B38460",
"3 c #B38560",
"4 c #B48560",
"5 c #B48660",
"6 c #B48661",
"7 c #B58661",
"8 c #B58761",
"9 c #B78962",
"0 c #B78A63",
"q c #B88A63",
"w c #B88B63",
"e c #B88B64",
"r c #B98C64",
"t c #BA8D64",
"y c #BA8D65",
"u c #BA8E65",
"i c #BB8E65",
"p c #BB8F65",
"a c #BB8F66",
"s c #BC8F66",
"d c #BC9066",
"f c #BD9167",
"g c #BE9267",
"h c #BE9268",
"j c #BE9368",
"k c #BF9368",
"l c #BF9468",
"z c #BF9469",
"x c #C09469",
"c c #C09569",
"v c #C19669",
"b c #C1966A",
"n c #C1976A",
"m c #C2976A",
"M c #C2986B",
"N c #C3986B",
"B c #C3996B",
"V c #C3996C",
"C c #C4996C",
"Z c #C49A6C",
"A c #C49B6C",
"S c #C59B6C",
"D c #C59B6D",
"F c #C59C6D",
"G c None",
/* pixels */
"GGGGGGGGGGGGGGGGGGZZZZGGGGGGGGGG",
"GGGGGGGGGGGGGGGGGGZZZCGGGGGGGGGG",
"GGGGGGGGZZGGGGGGGGZZbeGGGGGGGGGG",
"GGGGGGGSZZZGGGGGGGZZc:GGGGGGGGGG",
"GGGGGGGgcZZGGGGGGZZZZGGGGGGGGGGG",
"GGGGGGG=wVZZGGGGGZZNnGGGGGGGGGGG",
"GGGGGGGGsNZZGGGGGZZf1GGGGGGGGGGG",
"GGGGGGGGGrMZZGGGZZZjGGGGGGGGGGGG",
"GGGGGGGGG7NSZZGGAZZAGGGGGGGGGGGG",
"GGGGGGGGGGhMZZGGffffGGGGGGZADDGG",
"ZZZZGGGGGG<xDZDG&&&%GGGZZAZbccGG",
"MMNBZZZGGGGvNMNGGGGGGZZZCNc6;GGG",
"443tBZZZZGG3444GGGGSZZZZf62&GGGG",
"   ,9rbSADGG  GGGGAASBp04XGGGGGG",
"GGGGX*wdaaGGGGGGGGaasu,XGGGGGGGG",
"GGGGGG##@+GGGGGGGGG##@GGGGGGGGGG",
"GGGGGGGGGGGGGGGGGGGGGGGGGGGGGGGG",
"GGGGGGGGGSZZGGGGGGGGGDZZGGGGGGGG",
"GGGGGGGZZZASGGGGGGGGGSSZZZGGGGGG",
"GGGGGGZZDmayGGGGGGGGGticASAZGGGG",
"GGGGZAZbjy=OGGGGSZZSGO$0hgkBSSSG",
"GZZZVnc9==GGGGGGnBZZGGG===,fnbbG",
"GNBVl5>-GGGFZZGG2hZZZGGGGGG>,,,G",
"G8883#GGGGGZZZZGGzZZZGGGGGGGGGGG",
"GG.XGGGGGGGZZkrGGrkZZGGGGGGGGGGG",
"GGGGGGGGGGZZZu#GG#uZZZGGGGGGGGGG",
"GGGGGGGGGGZZngGGGGgnZZGGGGGGGGGG",
"GGGGGGGGGGZBqGGGGGGqBZZGGGGGGGGG",
"GGGGGGGGGZZBtGGGGGGrVZZGGGGGGGGG",
"GGGGGGGGGAAAGGGGGGGG000GGGGGGGGG",
"GGGGGGGGGaaaGGGGGGGGoooGGGGGGGGG",
"GGGGGGGGG@@@GGGGGGGGGGGGGGGGGGGG"
};
