/* XPM */
static char *result[] = {
/* columns rows colors chars-per-pixel */
"32 32 217 2 ",
"   c #EDE57B",
".  c #584990",
"X  c #584A90",
"o  c #594A91",
"O  c #5A4C91",
"+  c #5B4C91",
"@  c #5B4D91",
"#  c #5B4D92",
"$  c #5C4E92",
"%  c #7F6E9E",
"&  c #7F749C",
"*  c #7F759D",
"=  c #776EA6",
"-  c #796CA4",
";  c #796DA4",
":  c #7A6DA4",
">  c #7A6EA4",
",  c #7B6EA5",
"<  c #7167A9",
"1  c #7168A9",
"2  c #7168AA",
"3  c #7269AA",
"4  c #7D71A3",
"5  c #7E73A3",
"6  c #7F74A1",
"7  c #7B72A6",
"8  c #7D71A5",
"9  c #7D70A6",
"0  c #7C74AC",
"q  c #806899",
"w  c #816C9A",
"e  c #816D9A",
"r  c #806E9E",
"t  c #82709F",
"y  c #83739F",
"u  c #80759D",
"i  c #82749C",
"p  c #81779D",
"a  c #81769E",
"s  c #83779E",
"d  c #82789E",
"f  c #83789E",
"g  c #83799E",
"h  c #84799E",
"j  c #857B9E",
"k  c #8176A0",
"l  c #8879A3",
"z  c #89809F",
"x  c #B3AA8E",
"c  c #8B82A0",
"v  c #8A82AC",
"b  c #8B84AF",
"n  c #8D85AF",
"m  c #958DA2",
"M  c #9188AB",
"N  c #968FAC",
"B  c #948DAF",
"V  c #9F97A6",
"C  c #9C93AE",
"Z  c #9D94AD",
"A  c #948DB0",
"S  c #958DB0",
"D  c #968FB0",
"F  c #9790B0",
"G  c #A199A7",
"H  c #A29AA7",
"J  c #B29CAF",
"K  c #A59ABE",
"L  c #A69BBE",
"P  c #A69CBE",
"I  c #ADA5A0",
"U  c #B2ACAC",
"Y  c #AEA8B0",
"T  c #B3ADB0",
"R  c #B0ABB4",
"E  c #B8B3B6",
"W  c #C298A4",
"Q  c #C4A5A9",
"!  c #C6A6A9",
"~  c #CAB1B7",
"^  c #CBB2B7",
"/  c #C8BAB0",
"(  c #C9BBB0",
")  c #CBB8B7",
"_  c #CCB9B8",
"`  c #E9B3AB",
"'  c #EAB5AC",
"]  c #D5CC85",
"[  c #CDC693",
"{  c #E5DE88",
"}  c #EFE784",
"|  c #EFE88A",
" . c #E7E197",
".. c #F0EB99",
"X. c #F2ED9D",
"o. c #D1CCAC",
"O. c #D9D4A8",
"+. c #DAD6AD",
"@. c #DAD6AE",
"#. c #C9C5B3",
"$. c #CAC6B3",
"%. c #CDC3B6",
"&. c #C9C5B4",
"*. c #CAC6B4",
"=. c #CBC6B4",
"-. c #CBC7B4",
";. c #CCC7B4",
":. c #CCC8B4",
">. c #CDC8B4",
",. c #C6C1BA",
"<. c #C8C2BA",
"1. c #C8C2BB",
"2. c #D0C7B9",
"3. c #D0CDBA",
"4. c #D0CDBB",
"5. c #D1CEBA",
"6. c #D1CEBB",
"7. c #D1CFBB",
"8. c #D2CFBA",
"9. c #D2CEBB",
"0. c #D2CFBB",
"q. c #D4D0B6",
"w. c #D4D0B7",
"e. c #D5D1B7",
"r. c #D5D2B6",
"t. c #D6D3B7",
"y. c #D8D4B7",
"u. c #D2D0BA",
"i. c #D4D0B9",
"p. c #D5D1B9",
"a. c #D4D0BA",
"s. c #DCDABB",
"d. c #DEDCBD",
"f. c #ECC5B1",
"g. c #EDC6B1",
"h. c #EDC7B2",
"j. c #EEC8B2",
"k. c #F0CAB2",
"l. c #EDD1B5",
"z. c #F3D7B7",
"x. c #F2EEAC",
"c. c #F2EFAD",
"v. c #E7E5BC",
"b. c #E8E6BD",
"n. c #E8E7BD",
"m. c #EAE8BC",
"M. c #EDECBF",
"N. c #F0E2BB",
"B. c #F1E3BB",
"V. c #F2E4BB",
"C. c #F3E5BC",
"Z. c #F1E7BC",
"A. c #F4E6BC",
"S. c #F5EABD",
"D. c #F2EEBE",
"F. c #F3F0B1",
"G. c #F3F0B2",
"H. c #F3F1B2",
"J. c #F4F3BB",
"K. c #F4F0BF",
"L. c #F4F3BF",
"P. c #BAAFCA",
"I. c #BEB6C4",
"U. c #BFB7C4",
"Y. c #BAB0C9",
"T. c #BBB1CA",
"R. c #BCB2CB",
"E. c #CAC3C8",
"W. c #CAC4C8",
"Q. c #DDD5DE",
"!. c #DCD4DF",
"~. c #DDD4DF",
"^. c #DDD5DF",
"/. c #DED6DF",
"(. c #DFD8DF",
"). c #E3DCD6",
"_. c #E3DDD6",
"`. c #E2DCD7",
"'. c #E3DED7",
"]. c #E4DED7",
"[. c #E5E2C3",
"{. c #E6E2C4",
"}. c #EFEDC6",
"|. c #EDEAC8",
" X c #EEEBC8",
".X c #F6E1C5",
"XX c #F6E7C4",
"oX c #F9E4C5",
"OX c #F5EEC1",
"+X c #F7EFC3",
"@X c #F1EFCA",
"#X c #F3F2C0",
"$X c #F3F3C0",
"%X c #F2F0C2",
"&X c #F4F3C0",
"*X c #F5F3C1",
"=X c #F6F0C2",
"-X c #F5F4C0",
";X c #F5F5C0",
":X c #F4F4C1",
">X c #F5F4C1",
",X c #F5F5C1",
"<X c #F6F5C1",
"1X c #F6F6C1",
"2X c #F7F7C1",
"3X c #F9F1C3",
"4X c #F8F7C1",
"5X c #F2F0CA",
"6X c #F4F1CA",
"7X c #F4F1CB",
"8X c #E7E2D0",
"9X c #E6E0D8",
"0X c #E7E1D8",
"qX c #E8E2D9",
"wX c #E9E3D9",
"eX c #DFD7E0",
"rX c None",
/* pixels */
"rXrXrXrXrXrXO O O O O O rXrXrXrXrXrXrXrXO O O O O O rXrXrXrXrXrX",
"rXrXrXrXrXrX* d g f d & rXrXrXrXrXrXrXrX& d f g d * rXrXrXrXrXrX",
"rXrXrXrX+ u U -.:.;.=.U u + rXrXrXrX+ u U =.;.:.-.U u + rXrXrXrX",
"rXrXrXrX# i ( V.A.S.K.$.p X rXrXrXrXX p $.K.S.A.V.( i # rXrXrXrX",
"rXrXrXrX# e ! j.k.z.S.>.g O . @ @ . O g >.S.z.k.j.! e # rXrXrXrX",
"rXrXrXrX# q W ` ' g.B.p.Z 9 , 8 8 , 9 Z p.B.g.' ` W q # rXrXrXrX",
"rXrXrXrX# q W ` ' f.N.[.W.T.P.Y.Y.P.T.W.[.N.f.' ` W q # rXrXrXrX",
"rXrXrXrX# w Q f.h.l.Z. X'./.^././.^./.'. XZ.l.h.f.Q w # rXrXrXrX",
"rXrXrXrX# i / B.C.Z.D. X].eXeX(.(.eXeX]. XD.Z.C.B./ i # rXrXrXrX",
"rXrXrXrX@ f *.&X<X&X#X|.`.~.!.Q.Q.!.~.`.|.#X&X<X&X*.f @ rXrXrXrX",
"rXrXrXrX@ f *.:X1X&X$X|.).~.!.Q.Q.!.~.).|.$X&X1X:X*.f @ rXrXrXrX",
"rXrXrXrX# f *.>X4X-X&X}.8X).`._._.`.).8X}.&X-X4X>X*.f # rXrXrXrX",
"rXrX$ o @ g -.&X1X&X$X%X}.|.|.|.|.|.|.}.%X$X&X1X&X-.g @ o $ rXrX",
"rXrX$ o @ h -.b.t.q.v.$X&X#X#X#X#X#X#X&X$Xv.q.t.b.-.h @ o $ rXrX",
"rXrXrXrX# j -.e.H V q.&X;XL.L.L.L.L.L.;X&Xq.V H e.-.j # rXrXrXrX",
"rXrXrXrX# j -.r.H V q.&X>X#X#X#X#X#X#X>X&Xq.V H r.-.j # rXrXrXrX",
"rXrX$ o @ h -.n.t.w.v.#X&X#X#X#X#X#X#X&X#Xv.w.t.n.-.h @ o $ rXrX",
"rXrX$ o @ s %.+X3X=X*X;X;X,X,X,X,X,X,X;X;X*X=X3X+X%.s @ o $ rXrX",
"rXrXrXrX@ y ) .XoXXXOX&X$X&X&X&X&X&X&X$X&XOXXXoX.X) y @ rXrXrXrX",
"rXrXrXrX@ r J ~ ^ _ 2.u.u.8.6.4.3.5.8.u.u.2._ ^ ~ J r @ rXrXrXrX",
"rXrXrXrXrXrX% t t l M F F D D D D D D F F M l t t % rXrXrXrXrXrX",
"rXrXrXrXrXrX: 5 k 6 = 3 3 7 c m N n 0 3 3 = 6 k 5 : rXrXrXrXrXrX",
"rXrXrXrX@ : K U.,.T v 2 2 z x [ o.E b 1 < v T ,.U.K : @ rXrXrXrX",
"rXrXrXrX@ 9 R.wX7Xd.R S A I ] } X.+.Y B A R d.7XwXR.9 @ rXrXrXrX",
"rXrXrXrX@ 9 R.qX6XM.s.0.7.O.{   }  .@.6.9.s.M.6XqXR.9 @ rXrXrXrX",
"rXrXrXrX@ : L I.1.t.m.>X-XH...| | ..H.-X>Xm.t.1.I.L : @ rXrXrXrX",
"rXrXrXrXrXrX> 4 k G y.1X2XJ.G.c.x.F.J.2X1Xy.G k 4 > rXrXrXrXrXrX",
"rXrXrXrXrXrX@ . O k <.@X5X{.i.#.&.a.{.5X@X<.k O . @ rXrXrXrXrXrX",
"rXrXrXrXrXrXrXrX. 4 I.9X0XE.C a a C E.0X9XI.4 . rXrXrXrXrXrXrXrX",
"rXrXrXrXrXrXrXrX@ > L R.R.P : . . : P R.R.L > @ rXrXrXrXrXrXrXrX",
"rXrXrXrXrXrXrXrXrXrX; 9 9 - rXrXrXrX- 9 9 ; rXrXrXrXrXrXrXrXrXrX",
"rXrXrXrXrXrXrXrXrXrX+ + + + rXrXrXrX+ + + + rXrXrXrXrXrXrXrXrXrX"
};
