/* XPM */
static char *result[] = {
/* columns rows colors chars-per-pixel */
"32 32 195 2 ",
"   c #B9AE7F",
".  c #C4B97E",
"X  c #C7BD7F",
"o  c #ECE377",
"O  c #EEE577",
"+  c #ECE378",
"@  c #574990",
"#  c #584A91",
"$  c #594A91",
"%  c #594B91",
"&  c #5A4B91",
"*  c #5A4C91",
"=  c #5B4C91",
"-  c #5B4D91",
";  c #5A4C92",
":  c #5B4D92",
">  c #5C4E92",
",  c #67598F",
"<  c #645794",
"1  c #796C8C",
"2  c #786C9A",
"3  c #786C9B",
"4  c #7D7293",
"5  c #7E739C",
"6  c #7F749C",
"7  c #7F759C",
"8  c #7E749D",
"9  c #7F749D",
"0  c #7F759D",
"q  c #796EA2",
"w  c #796CA4",
"e  c #7A6DA4",
"r  c #796FA7",
"t  c #7168A9",
"y  c #7269A9",
"u  c #726AA9",
"i  c #736AA9",
"p  c #7269AA",
"a  c #736AAA",
"s  c #746AAA",
"d  c #756CAA",
"f  c #7F75A1",
"g  c #7D70A6",
"h  c #7D74AB",
"j  c #80738B",
"k  c #877C8F",
"l  c #80759D",
"z  c #81769D",
"x  c #81779D",
"c  c #82789E",
"v  c #83789E",
"b  c #83799E",
"n  c #84799E",
"m  c #887EA2",
"M  c #887EA3",
"N  c #8479A8",
"B  c #89809E",
"V  c #918798",
"C  c #AEA489",
"Z  c #8A82AD",
"A  c #8C85AD",
"S  c #8D85AE",
"D  c #9087AD",
"F  c #9189AB",
"G  c #9289AB",
"H  c #958EAF",
"J  c #9F94A5",
"K  c #9F97A6",
"L  c #9C92AC",
"P  c #9C92AD",
"I  c #9788B1",
"U  c #978AB1",
"Y  c #978BB1",
"T  c #968DB0",
"R  c #978EB0",
"E  c #968FB0",
"W  c #9790B0",
"Q  c #A098A7",
"!  c #A199A7",
"~  c #A59ABD",
"^  c #A59ABE",
"/  c #A69BBE",
"(  c #ADA6AA",
")  c #B1ABAC",
"_  c #B1ABAD",
"`  c #B2ABAC",
"'  c #B2ACAC",
"]  c #AFAAB3",
"[  c #B3ADB2",
"{  c #B8B4B5",
"}  c #D2BBBE",
"|  c #D2BCBE",
" . c #E7B2AB",
".. c #CBC283",
"X. c #CAC5B3",
"o. c #CAC6B3",
"O. c #CAC5B4",
"+. c #CAC6B4",
"@. c #CBC6B4",
"#. c #CBC7B4",
"$. c #CBC7B5",
"%. c #CCC7B4",
"&. c #CCC8B4",
"*. c #CDC8B4",
"=. c #CDC9B4",
"-. c #CCC8B5",
";. c #CCC8B6",
":. c #CCC7BF",
">. c #D4C7B3",
",. c #D2C1BD",
"<. c #D1C9BB",
"1. c #D2CABB",
"2. c #D0CCB8",
"3. c #D2CEB9",
"4. c #D2CFBA",
"5. c #D4D0B6",
"6. c #D4D0B7",
"7. c #D6D2B7",
"8. c #D6D3B7",
"9. c #D7D3B7",
"0. c #D2D0BA",
"q. c #D3D0BA",
"w. c #D3D0BB",
"e. c #D4D0B9",
"r. c #D6D3B8",
"t. c #D5D2BB",
"y. c #D9D6B8",
"u. c #DCD9BB",
"i. c #DCD9BC",
"p. c #EBC4B1",
"a. c #ECC6B1",
"s. c #EEC7B2",
"d. c #E6C9B3",
"f. c #EEC8B2",
"g. c #EDD1B5",
"h. c #F0D4B6",
"j. c #F3D7B6",
"k. c #E7E5BC",
"l. c #E7E5BD",
"z. c #E8E6BD",
"x. c #E9E7BD",
"c. c #EBEABE",
"v. c #ECEBBF",
"b. c #F0E2BB",
"n. c #F1E3BB",
"m. c #F2E3BB",
"M. c #F3E5BB",
"N. c #F3E5BC",
"B. c #F1E6BC",
"V. c #F2E7BC",
"C. c #F3E9BD",
"Z. c #F5EABD",
"A. c #F2EEBF",
"S. c #F3EFBF",
"D. c #F4F0BF",
"F. c #BCB2CB",
"G. c #C1B9C6",
"H. c #CAC2C7",
"J. c #CAC2C8",
"K. c #F3DFC4",
"L. c #F4DFC4",
"P. c #E7E4C4",
"I. c #F3E5C3",
"U. c #F5E5C3",
"Y. c #F4EEC1",
"T. c #F5EDC2",
"R. c #F5EFC2",
"E. c #F1EECA",
"W. c #F2EFCA",
"Q. c #F3F2C0",
"!. c #F3F3C0",
"~. c #F3F3C1",
"^. c #F4F3C0",
"/. c #F5F2C1",
"(. c #F4F3C1",
"). c #F6F3C1",
"_. c #F6F0C2",
"`. c #F4F4C0",
"'. c #F5F4C0",
"]. c #F5F5C0",
"[. c #F5F4C1",
"{. c #F5F5C1",
"}. c #F6F5C0",
"|. c #F6F5C1",
" X c #F6F6C1",
".X c #F7F6C1",
"XX c #F7F7C1",
"oX c #F8F7C1",
"OX c #F8F8C1",
"+X c #F8F8C2",
"@X c #F2F0CA",
"#X c #E6E0D8",
"$X c #E7E1D8",
"%X c #E8E2D9",
"&X c None",
/* pixels */
"&X&X&X&X&X&X&X&X&X&X&X&X&X&X* * * * * * &X&X&X&X&X&X&X&X&X&X&X&X",
"&X&X&X&X&X&X&X&X&X&X&X&X&X&X6 c v b c 8 &X&X&X&X&X&X&X&X&X&X&X&X",
"&X&X&X&X&X&X&X&X&X&X&X&X= l ' @.%.&.#.' 9 % &X&X&X&X&X&X&X&X&X&X",
"&X&X&X&X&X&X&X&X&X&X&X&X@ x o.D.Z.N.m.>.J 9 &X&X&X&X&X&X&X&X&X&X",
"&X&X&X&X&X&X&X&X&X&X- @ * b *.Z.j.f.s.d.>.` 0 - &X&X&X&X&X&X&X&X",
"&X&X&X&X&X&X&X&X&X&Xl z v ! 8.n.a. . .s.m.@.b - &X&X&X&X&X&X&X&X",
"&X&X&X&X&X&X&X&X- l ' +.&.r.x.b.p. . .s.M.%.b - &X&X&X&X&X&X&X&X",
"&X&X&X&X&X&X&X&X= v +.[..X`.!.B.g.p.p.h.V.+.b - &X&X&X&X&X&X&X&X",
"&X&X&X&X&X&X&X&X- v %..X+X[.^.A.B.b.b.C.S.+.v - &X&X&X&X&X&X&X&X",
"&X&X&X&X&X&X&X&X- c X.(.|.Q.Q.Q.Q.!.Q.|.(.O.c - &X&X&X&X&X&X&X&X",
"&X&X&X&X&X&X&X&X- c O.(.|.Q.Q.Q.!.~.~. X(.O.c - &X&X&X&X&X&X&X&X",
"&X&X&X&X&X&X&X&X# z O.[.oX[.^.Q.Q.Q.Q.|.(.+.v : &X&X&X&X&X&X&X&X",
"&X&X&X&X&X&X> # * v #.^. X^.Q.Q.Q.Q.Q.|.(.#.b - $ > &X&X&X&X&X&X",
"&X&X&X&X&X&X> < 3 ! 9.z.7.5.k.Q.^.Q.Q.|.(.#.b - $ > &X&X&X&X&X&X",
"&X&X&X&X&X&X: 2 ( y.c.6.Q K 5.^.[.Q.Q.|.(.+.v : &X&X&X&X&X&X&X&X",
"&X&X&X&X&X&X- v @..X.X5.K K 5.^.].Q.Q.|.(.+.v : &X&X&X&X&X&X&X&X",
"&X&X&X&X&X&X- n &..X.Xk.5.5.l.!.^.Q.Q.|.(.#.b - $ > &X&X&X&X&X&X",
"&X&X&X&X&X&X- v %..XoX].|.).R.T.T.R./.oX.X=.b - $ > &X&X&X&X&X&X",
"&X&X&X&X&X&X= v +.[..X'.|._.U.L.K.I.Y..X[.#.v - &X&X&X&X&X&X&X&X",
"&X&X&X&X&X&X- 9 _ ;.3.0.q.1.,.| } ,.<.2.-.` 7 - &X&X&X&X&X&X&X&X",
"&X&X&X&X&X&X&X&X9 M G W W R U I I Y T F m 6 &X&X&X&X&X&X&X&X&X&X",
"&X&X&X&X&X&X&X&Xj 4 q d s a i y a h S D N e &X&X&X&X&X&X&X&X&X&X",
"&X&X&X&X&X&X&X&X. C B a p a a t u A { :.G.^ e - &X&X&X&X&X&X&X&X",
"&X&X&X&X&X&X&X&Xo ..V r Z W W H E ] i.W.%XF.g - &X&X&X&X&X&X&X&X",
"&X&X&X&X&X&X&X&XO X k f [ w.t.4.4.u.v.@X$XF.g - &X&X&X&X&X&X&X&X",
"&X&X&X&X&X&X&X&X+   1 v $..XoX^.^.}.}.P.J.~ w - &X&X&X&X&X&X&X&X",
"&X&X&X&X&X&X&X&X&X&X, v %..XOX'.].XX{.e.P e &X&X&X&X&X&X&X&X&X&X",
"&X&X&X&X&X&X&X&X&X&X; 6 ` e.P.E.E.P.e.) 5 & &X&X&X&X&X&X&X&X&X&X",
"&X&X&X&X&X&X&X&X&X&X&X&X6 L H.#X#XJ.P 5 &X&X&X&X&X&X&X&X&X&X&X&X",
"&X&X&X&X&X&X&X&X&X&X&X&X& e / F.F./ e & &X&X&X&X&X&X&X&X&X&X&X&X",
"&X&X&X&X&X&X&X&X&X&X&X&X&X&Xw g g w &X&X&X&X&X&X&X&X&X&X&X&X&X&X",
"&X&X&X&X&X&X&X&X&X&X&X&X&X&X= = = = &X&X&X&X&X&X&X&X&X&X&X&X&X&X"
};
