/* XPM */
static char *result[] = {
/* columns rows colors chars-per-pixel */
"32 32 3 1 ",
"  c #E1C397",
". c #E8CFA6",
"X c #EDDAB5",
/* pixels */
"................................",
"................................",
"................................",
"........................XXXX....",
"......  ...............XXXXXX...",
".....    ...............XXXX....",
"......  ...........XX...........",
"..................XXXX..........",
"...........  ......XX...........",
"..........    ..................",
"...........  ..............XX...",
"...  .....................XXXX..",
"..    .....................XX...",
"...  ...........................",
"................................",
"................................",
"................................",
"................................",
"................................",
".........................   ....",
"........................     ...",
".........................   ....",
"................................",
"........XX............  ........",
".......XXXX..........    .......",
"........XX............  ........",
"................................",
"...XXX..........................",
"..XXXXX.........................",
"...XXX..........................",
"................................",
"................................"
};
