/* XPM */
static char *result[] = {
/* columns rows colors chars-per-pixel */
"32 32 206 2 ",
"   c #5D747A",
".  c #5D757A",
"X  c #5E777A",
"o  c #5E767B",
"O  c #5D7878",
"+  c #5D7879",
"@  c #5E7978",
"#  c #5E7979",
"$  c #5F7979",
"%  c #5F7A79",
"&  c #617F79",
"*  c #627F7A",
"=  c #628079",
"-  c #628179",
";  c #62817A",
":  c #63817A",
">  c #65837B",
",  c #65867A",
"<  c #66877A",
"1  c #64817C",
"2  c #67897A",
"3  c #678A7B",
"4  c #698E7B",
"5  c #6A8E7B",
"6  c #6A8F7B",
"7  c #6A887D",
"8  c #6B887D",
"9  c #688B7D",
"0  c #6B887E",
"q  c #6B897E",
"w  c #6C887E",
"e  c #6C897E",
"r  c #6D8A7E",
"t  c #6E8B7F",
"y  c #6A8C7D",
"u  c #6B8E7D",
"i  c #6E8C7F",
"p  c #6A907B",
"a  c #6B907B",
"s  c #6B917B",
"d  c #6D957B",
"f  c #6B907C",
"g  c #6C917C",
"h  c #6D927C",
"j  c #6C937C",
"k  c #6D937C",
"l  c #6D947C",
"z  c #6D957C",
"x  c #6D967C",
"c  c #6E967C",
"v  c #70907F",
"b  c #72967F",
"n  c #70987D",
"m  c #71987D",
"M  c #71997D",
"N  c #759C7F",
"B  c #759D7F",
"V  c #769D7F",
"C  c #769E7F",
"Z  c #718F80",
"A  c #728F80",
"S  c #749281",
"D  c #779381",
"F  c #789481",
"G  c #789782",
"H  c #759A80",
"J  c #769D80",
"K  c #779E80",
"L  c #799882",
"P  c #799883",
"I  c #799983",
"U  c #789F80",
"Y  c #789F81",
"T  c #799F81",
"R  c #7E9D85",
"E  c #7E9E85",
"W  c #7F9F85",
"Q  c #79A081",
"!  c #7AA081",
"~  c #7AA181",
"^  c #7EA483",
"/  c #7EA583",
"(  c #7FA583",
")  c #7FA085",
"_  c #80A285",
"`  c #80A784",
"'  c #81A784",
"]  c #81A785",
"[  c #81A884",
"{  c #82A885",
"}  c #83A985",
"|  c #84AA85",
" . c #84AA86",
".. c #85AA86",
"X. c #84AB86",
"o. c #85AB86",
"O. c #87AC87",
"+. c #87AD87",
"@. c #87A988",
"#. c #88AA88",
"$. c #88AA89",
"%. c #89AA89",
"&. c #8AAC89",
"*. c #8BAF89",
"=. c #8BAE8A",
"-. c #8CAE8A",
";. c #8BB189",
":. c #8CB189",
">. c #8CB289",
",. c #8DB289",
"<. c #8DB28A",
"1. c #8FB38A",
"2. c #8FB48A",
"3. c #8FB48B",
"4. c #90B48B",
"5. c #90B58B",
"6. c #90B38C",
"7. c #91B38C",
"8. c #92B58D",
"9. c #93B68D",
"0. c #93B78D",
"q. c #94B78D",
"w. c #95B78E",
"e. c #94B88D",
"r. c #94B98D",
"t. c #95B98D",
"y. c #95BA8D",
"u. c #95B88E",
"i. c #96BA8E",
"p. c #97BB8E",
"a. c #98BB8E",
"s. c #98BC8E",
"d. c #98BC8F",
"f. c #98BD8F",
"g. c #99BD8F",
"h. c #9ABE8F",
"j. c #9BBF90",
"k. c #9DBE91",
"l. c #9BC090",
"z. c #9CC090",
"x. c #9DC190",
"c. c #9CC191",
"v. c #9DC191",
"b. c #9DC291",
"n. c #9EC291",
"m. c #9EC391",
"M. c #9DC092",
"N. c #9DC192",
"B. c #A4C391",
"V. c #A0C492",
"C. c #A0C592",
"Z. c #A0C593",
"A. c #A1C593",
"S. c #A1C693",
"D. c #A1C793",
"F. c #A2C793",
"G. c #A7C591",
"H. c #A8C591",
"J. c #A4C893",
"K. c #A3C894",
"L. c #A3C994",
"P. c #A4C994",
"I. c #A5CA94",
"U. c #A5CA95",
"Y. c #A6CB95",
"T. c #A7CD96",
"R. c #A8CD96",
"E. c #A8CE96",
"W. c #A9CE96",
"Q. c #A9CF97",
"!. c #AACF97",
"~. c #AAD097",
"^. c #ABD197",
"/. c #ABD098",
"(. c #ABD198",
"). c #ADD298",
"_. c #ADD398",
"`. c #ADD399",
"'. c #AFD398",
"]. c #ADD499",
"[. c #AED499",
"{. c #AED599",
"}. c #AFD599",
"|. c #AFD59A",
" X c #B0D599",
".X c #B0D699",
"XX c #B2D699",
"oX c #B2D799",
"OX c #B3D799",
"+X c #B3D899",
"@X c #B3D89A",
"#X c #B4D899",
"$X c #B7D999",
"%X c #B4D89A",
"&X c #B5D99A",
"*X c #B9DB9A",
"=X c #BADB9A",
"-X c #BDDD9A",
";X c #BEDE9A",
":X c #BFDE9A",
">X c #BFDF9B",
",X c #C1DF9A",
"<X c #C3E09A",
"1X c #C3E19A",
"2X c #C4E29B",
"3X c None",
/* pixels */
"3X3X3X3X3X3X3X3X3X3X# # @ @ @ @ @ @ @ @ # # 3X3X3X3X3X3X3X3X3X3X",
"3X3X3X3X3X3X3X3X3X3X8 i Z S D F F D S Z i 8 3X3X3X3X3X3X3X3X3X3X",
"3X3X3X3X3X3X# + @ e W -.u.k.B.H.G.B.k.u.-.W e @ + # 3X3X3X3X3X3X",
"3X3X3X3X3X3Xw t Z R 8.F.^.%X;X1X1X;X%X~.D.8.R A t w 3X3X3X3X3X3X",
"3X3X3X3X# 0 W -.w.M.U.~.[.&X>X2X2X>X&X[.~.U.N.w.-.W 0 # 3X3X3X3X",
"3X3X3X3X0 P 6.J.'.#X#XXX}.XX*X:X,X;X$XOXOXoX.X^.F.6.I e 3X3X3X3X",
"3X3X# w W 6.A.'.*X;X;X*XXX}.XX$X;X,X:X-X-X=X@X[.(.A.6.W 0 # 3X3X",
"3X3X+ t -.F./.OX-X1X1X-XOX].].OX-X<X1X<X<X-XOX[.[.Q.b.@.e O 3X3X",
"3X3X@ A w.^.[.+X-X1X1X-XOX].].OX-X<X<X<X<X-XOX[.[.!.m.#.r # 3X3X",
"3X3Xe E N.}.|.XX*X-X-X*XXX[.[.XX*X-X-X-X-X*XoX{.[.~.F.7.I e 3X3X",
"# 0 ) 8.U.}.}.}.XXOXOXXX}.[.[.}.XXOXOXOXOXoX X[.[.`.~.Z.7.) 0 # ",
"# r #.z.I.!.`.}.[.).Q.Q._.{.}.[.[.[.[._.Q.T.T.Q.`.`.~.U.v.%.r # ",
"# r $.g.x.S.!.}.{.Q.S.S.Q.{.[.[.[.[.[.Q.S.c.c.F.!.~.F.v.h.%.r # ",
"# r #.s.s.l.L.E.E.K.j.j.K.E.E.!.`.`.~.U.C.b.b.C.Y.P.z.9.=.W e # ",
"# r #.p.s.d.l.b.v.j.d.s.l.v.v.F.~.!.F.V.U.R.R.U.C.z.d.=.G e 3X3X",
"# e W -.q.p.p.f.z.b.b.z.g.i.i.z.L.L.l.l.K.W.W.P.l.s.p.-.L e 3X3X",
"3X3Xe G -.p.p.l.K.E.E.P.l.i.i.d.l.l.s.s.z.b.b.z.d.p.p.0.-.W q # ",
"3X3X= v &.s.s.z.P.Q.W.P.z.a.p.p.p.p.p.p.p.p.p.a.s.s.s.i.5._ 7 # ",
"$ & 2 H *.p.s.g.z.n.n.z.g.p.p.p.p.p.p.p.p.p.p.p.p.s.p.5.{ b > $ ",
"$ - 5 V o.4.y.t.3.3.r.r.3.;.;.1.e.p.s.d.s.t.2.;.;.:.:.o.V 4 ; % ",
"$ : 6 M C ] 4.1.' ' 1.3.] U U ` 2.p.s.s.s.3.` Y U T Q V n 4 ; $ ",
"% : 6 c c J | } B B  .+.( T Q [ 5.t.5.,.:.+./ Q Q J m c c 6 : % ",
"% : 6 c c n V N n n B ^ +.:.:.3.t.2.' U U ^ O.>.:. .N c x 6 : % ",
"X * 3 a l M J Q ~ V m V  .,.<.<.,. .V z z V ..<.<.o.J l p 3 * X ",
"3Xo * , s J  .,.,. .V n V ! ! Q Q J n z z n J ! ! K M s < * o 3X",
"3X3X. : 6 J X.,.,...J c z c c c c c c c c c c c c c c f :   3X3X",
"3X3X3X1 g M K ! ! J M c z z z z z x c c c c x z d c c g 1 3X3X3X",
"3X3X3X3Xu h k k z c c c c c c c c c c c c c c c l k h u 3X3X3X3X",
"3X3X3X3X3X3X3X9 j c c c c c c c c c c c c c c l y 3X3X3X3X3X3X3X",
"3X3X3X3X3X3X3X3Xu k k h h h h h h h h h h k k u 3X3X3X3X3X3X3X3X",
"3X3X3X3X3X3X3X3X3X3X3X3X3X3X3X3X3X3X3X3X3X3X3X3X3X3X3X3X3X3X3X3X",
"3X3X3X3X3X3X3X3X3X3X3X3X3X3X3X3X3X3X3X3X3X3X3X3X3X3X3X3X3X3X3X3X"
};
